<svg version="1.2" xmlns="http://www.w3.org/2000/svg" viewBox="0 0 1920 1920" width="1920" height="1920"><style></style><path fill="#1a202c" aria-label="gitScore"  d="m347.8 862v20.4c-13.2-16.4-32.4-26-58.4-26c-56.8 0-98.4 46.4-98.4 101.6c0 55.2 41.6 101.6 98.4 101.6c26 0 45.2-9.6 58.4-26v18.4c0 28.4-17.2 42.8-45.2 42.8c-26.4 0-38-11.2-45.6-25.2l-51.2 29.6c18.4 32.8 53.2 48.4 94.8 48.4c53.2 0 105.6-28.4 105.6-95.6v-190zm-48.4 142.4c-28.4 0-48.4-18.8-48.4-46.4c0-27.6 20-46.4 48.4-46.4c28.4 0 48.4 18.8 48.4 46.4c0 27.6-20 46.4-48.4 46.4zm180.8-160c19.6 0 36-16.4 36-36c0-19.6-16.4-36-36-36c-19.6 0-36 16.4-36 36c0 19.6 16.4 36 36 36zm-30 217.6h60v-200h-60zm221.2-142.4v-57.6h-41.2v-56l-60 18v38h-32v57.6h32v70.8c0 56 22.8 79.6 101.2 71.6v-54.4c-26.4 1.6-41.2 0-41.2-17.2v-70.8zm134 148c60.8 0 104-32 104-86c0-59.2-47.6-74-90-86.8c-43.6-13.2-50.4-22-50.4-34.8c0-11.2 10-21.2 30-21.2c25.6 0 38.8 12.4 48.4 32.4l54-31.6c-20.4-41.2-56.4-63.2-102.4-63.2c-48.4 0-94 31.2-94 85.2c0 53.6 40.8 73.6 82.4 85.2c42 11.6 58 18.4 58 35.6c0 10.8-7.6 22.8-38 22.8c-31.6 0-48.8-15.6-58.8-38.8l-55.2 32c15.6 41.2 53.2 69.2 112 69.2zm236 0c39.2 0 73.2-20.4 90.4-51.6l-52.4-30c-6.4 14-21.2 22.4-38.8 22.4c-26 0-45.2-18.8-45.2-46.4c0-27.6 19.2-46.4 45.2-46.4c17.6 0 32 8.4 38.8 22.4l52.4-30.4c-17.2-30.8-51.6-51.2-90.4-51.2c-60.8 0-106 46-106 105.6c0 59.6 45.2 105.6 106 105.6zm206.4 0c58.8 0 106-46 106-105.6c0-59.6-47.2-105.6-106-105.6c-58.8 0-106 46-106 105.6c0 59.6 47.2 105.6 106 105.6zm0-58.4c-26 0-46-18.8-46-47.2c0-28.4 20-47.2 46-47.2c26 0 46 18.8 46 47.2c0 28.4-20 47.2-46 47.2zm200-111.6v-35.6h-60v200h60v-90.4c0-39.6 35.2-49.6 60-45.6v-68c-25.2 0-52 12.8-60 39.6zm135.6 88.4h142c1.6-7.6 2.4-15.6 2.4-24c0-60.4-43.2-105.6-101.6-105.6c-63.2 0-106.4 46-106.4 105.6c0 59.6 42.4 105.6 110.8 105.6c38 0 67.6-14 87.2-41.2l-48-27.6c-8 8.8-22 15.2-38.4 15.2c-22 0-40.4-7.2-48-28zm-1.2-44.8c5.6-20.4 20.8-31.6 43.6-31.6c18 0 36 8.4 42.4 31.6z" /></svg>